<?xml version="1.0" encoding="utf-8"?>
<!-- Generator: Adobe Illustrator 24.1.1, SVG Export Plug-In . SVG Version: 6.00 Build 0)  -->
<svg version="1.1"
	 id="svg2" inkscape:version="0.48.5 r10040" sodipodi:docname="js_logo.svg" xmlns:cc="http://creativecommons.org/ns#" xmlns:dc="http://purl.org/dc/elements/1.1/" xmlns:inkscape="http://www.inkscape.org/namespaces/inkscape" xmlns:rdf="http://www.w3.org/1999/02/22-rdf-syntax-ns#" xmlns:sodipodi="http://sodipodi.sourceforge.net/DTD/sodipodi-0.dtd" xmlns:svg="http://www.w3.org/2000/svg"
	 xmlns="http://www.w3.org/2000/svg" xmlns:xlink="http://www.w3.org/1999/xlink" x="0px" y="0px" viewBox="0 0 699 699"
	 style="enable-background:new 0 0 699 699;" xml:space="preserve">
<style type="text/css">
	.st0{opacity:0.8;}
	.st1{fill:#EED94D;}
	.st2{fill:#31322F;}
</style>
<sodipodi:namedview  bordercolor="#666666" borderopacity="1.0" fit-margin-bottom="0" fit-margin-left="0" fit-margin-right="0" fit-margin-top="0" id="base" inkscape:current-layer="layer1" inkscape:cx="187.35714" inkscape:cy="473.78572" inkscape:document-units="px" inkscape:pageopacity="0.0" inkscape:pageshadow="2" inkscape:window-height="664" inkscape:window-maximized="1" inkscape:window-width="1366" inkscape:window-x="-8" inkscape:window-y="-8" inkscape:zoom="0.35" pagecolor="#ffffff" showgrid="false">
	</sodipodi:namedview>
<g id="layer1" transform="translate(-187.64286,-331.43361)" inkscape:groupmode="layer" inkscape:label="Layer 1" class="st0">
	<g id="g2987" transform="translate(187.64286,330.43361)">
		<path id="path2991" inkscape:connector-curvature="0" class="st1" d="M0,350.5V1h349.5H699v349.5V700H349.5H0V350.5z M306,642.4
			c42-7.3,67.4-34.1,73-77.5c0.6-4.4,1-56,1-125.7l0-118.3h-32.5H315l0,111.8c0,66.9-0.4,115.5-1,121.2c-2,18.7-9,27.8-23.8,30.9
			c-21,4.4-36.6-4-49.4-26.6c-1.6-2.9-3.4-5.3-4-5.3c-0.9,0-50.1,29.3-52.1,31c-2.1,1.8,10.4,20.9,20.1,30.7
			C228.6,638.9,266.4,649.2,306,642.4L306,642.4z M557.5,642.9c26.7-3.4,48.5-13.7,64.5-30.6c6.5-6.9,9-10.5,13-18.7
			c6.5-13.5,8.1-20.3,8.7-37.2c1.2-30.4-6.9-51.9-26.4-70.6c-14-13.3-31.6-23.6-64.8-37.9c-34.1-14.7-44.6-21.4-49.6-31.7
			c-3.5-7.2-3.3-18,0.4-25.6c5.5-11.2,16.1-16.4,31.8-15.5c14.9,0.9,25.3,7.1,34.4,20.8l4.5,6.8l22.9-14.7
			c12.6-8.1,24.1-15.6,25.5-16.7l2.6-2l-5.6-8.4c-14.2-21-32.9-34.3-56.6-40.2c-12-3-38.8-3.8-51.8-1.5
			c-21.4,3.7-36.6,11.3-50.6,25.1c-12.6,12.5-19.5,25-23,42.2c-2.5,12.1-1.5,35,2.1,46.8c9.1,30.2,29.4,49.7,71.2,68.2
			c8.2,3.6,20.9,9.2,28.3,12.5c29.9,13.2,39.3,22.7,39.3,39.4c0,15.4-9.8,26.2-28.4,31c-9.9,2.6-28.9,1.7-39.3-1.9
			c-14.2-4.9-27.8-15.8-37.1-29.9c-2.7-4.1-4.3-5.6-5.4-5.2C465,548.7,416,577.4,416,578c0,2.3,15.1,22.8,21.6,29.3
			C466.4,636.3,509.2,649,557.5,642.9L557.5,642.9z"/>
		<path id="path2989" inkscape:connector-curvature="0" class="st2" d="M270.5,643.9c-25.7-1.9-49.2-12.3-65.8-29.1
			c-9.7-9.8-22.2-28.9-20.1-30.7c2-1.8,51.1-31,52.1-31c0.6,0,2.4,2.4,4,5.3c12.8,22.7,28.4,31.1,49.4,26.6
			c14.8-3.1,21.8-12.2,23.8-30.9c0.6-5.6,1-54.3,1-121.2l0-111.8h32.5H380l0,118.3c0,69.6-0.4,121.3-1,125.7
			C371.9,619.7,332.4,648.4,270.5,643.9L270.5,643.9z M522.9,643.9c-44-3.1-78.2-21.8-100.1-54.8c-3.8-5.7-6.9-10.7-6.9-11.1
			c0-0.6,49-29.3,52.1-30.5c1.1-0.4,2.7,1.1,5.4,5.2c9.3,14.1,22.9,25.1,37.1,29.9c10.4,3.6,29.4,4.5,39.3,1.9
			c18.6-4.8,28.4-15.6,28.4-31c0-16.7-9.5-26.2-39.3-39.4c-7.4-3.3-20.2-8.9-28.3-12.5c-41.8-18.5-62.2-37.9-71.2-68.2
			c-3.5-11.8-4.5-34.7-2.1-46.8c3.5-17.1,10.4-29.6,23-42.2c14-13.8,29.2-21.3,50.6-25.1c13-2.3,39.8-1.5,51.8,1.5
			c23.7,5.9,42.4,19.2,56.6,40.2l5.6,8.4l-2.6,2c-1.4,1.1-12.9,8.6-25.5,16.7l-22.9,14.7l-4.5-6.8c-9.1-13.7-19.5-20-34.4-20.8
			c-15.7-0.9-26.3,4.3-31.8,15.5c-2.4,4.9-2.8,6.9-2.7,13.4c0.2,18.1,8.7,25.3,51.9,43.9c33.3,14.3,50.9,24.6,64.8,37.9
			c19.5,18.6,27.5,40.1,26.4,70.6c-0.6,16.8-2.3,23.6-8.7,37.2C618.2,628.5,575.7,647.6,522.9,643.9L522.9,643.9z"/>
	</g>
</g>
</svg>
